<svg width="8" height="6" viewBox="0 0 8 6" fill="none" xmlns="http://www.w3.org/2000/svg">
<path id="Vector" d="M1.93964 2.08858L3.82464 3.48801C3.87479 3.52522 3.93649 3.54542 4 3.54542C4.06351 3.54542 4.12521 3.52522 4.17536 3.48801L6.74679 1.57892C6.777 1.55714 6.80237 1.52985 6.82144 1.49863C6.84051 1.46741 6.85288 1.43288 6.85785 1.39706C6.86281 1.36123 6.86027 1.32482 6.85037 1.28994C6.84047 1.25506 6.8234 1.22241 6.80016 1.19388C6.77692 1.16535 6.74798 1.14151 6.715 1.12375C6.68203 1.106 6.64569 1.09467 6.60809 1.09043C6.57049 1.0862 6.53239 1.08914 6.49599 1.09908C6.45959 1.10902 6.42563 1.12577 6.39607 1.14835L4 2.92722L2.3175 1.67812C2.4803 1.42673 2.56861 1.1379 2.57305 0.842384C2.57748 0.54687 2.49787 0.25574 2.34268 0H7C7.26513 0.00027072 7.51932 0.100926 7.70679 0.279879C7.89427 0.458832 7.99972 0.701467 8 0.954545V5.04545C7.99972 5.29853 7.89427 5.54117 7.70679 5.72012C7.51932 5.89907 7.26513 5.99973 7 6H1C0.73487 5.99973 0.480681 5.89907 0.293206 5.72012C0.105731 5.54117 0.000283254 5.29853 -3.57628e-07 5.04545V2.23619C0.300768 2.40249 0.64745 2.47744 0.993933 2.45107C1.34042 2.4247 1.67028 2.29827 1.93964 2.08858Z" fill="black"/>
</svg>
