<svg width="20" height="20" viewBox="0 0 20 20" fill="none" xmlns="http://www.w3.org/2000/svg">
<g id="image 1">
<path id="Vector" d="M3.5 3H16C16.6628 3.00072 17.2983 3.26435 17.767 3.73303C18.2357 4.20172 18.4993 4.83718 18.5 5.5V15.5C18.4993 16.1628 18.2357 16.7983 17.767 17.267C17.2983 17.7357 16.6628 17.9993 16 18H3.5C2.83718 17.9993 2.20172 17.7357 1.73303 17.267C1.26435 16.7983 1.00072 16.1628 1 15.5V5.5C1.00072 4.83718 1.26435 4.20172 1.73303 3.73303C2.20172 3.26435 2.83718 3.00072 3.5 3ZM6.625 5.5C6.25416 5.5 5.89165 5.60997 5.58331 5.81599C5.27496 6.02202 5.03464 6.31486 4.89273 6.65747C4.75081 7.00008 4.71368 7.37708 4.78603 7.74079C4.85837 8.10451 5.03695 8.4386 5.29917 8.70083C5.5614 8.96305 5.89549 9.14163 6.25921 9.21397C6.62292 9.28632 6.99992 9.24919 7.34253 9.10727C7.68514 8.96536 7.97798 8.72504 8.18401 8.41669C8.39003 8.10835 8.5 7.74584 8.5 7.375C8.49948 6.87788 8.30177 6.40126 7.95025 6.04975C7.59874 5.69823 7.12212 5.50052 6.625 5.5ZM16 16.75C16.3315 16.75 16.6495 16.6183 16.8839 16.3839C17.1183 16.1495 17.25 15.8315 17.25 15.5V12.8582L13.5453 9.56523C13.1879 9.24823 12.723 9.07942 12.2455 9.09321C11.7679 9.107 11.3136 9.30235 10.975 9.63945L8.43789 12.1711L13.0168 16.75H16ZM2.25 15.5C2.25 15.8315 2.3817 16.1495 2.61612 16.3839C2.85054 16.6183 3.16848 16.75 3.5 16.75H11.2488L6.50586 12.007C6.17005 11.7215 5.74391 11.5641 5.3031 11.563C4.86228 11.5618 4.43533 11.717 4.09805 12.0008L2.25 13.5406V15.5Z" fill="black"/>
</g>
</svg>
