<svg width="26" height="25" viewBox="0 0 26 25" fill="none" xmlns="http://www.w3.org/2000/svg">
<g id="agenda_icon">
<path d="M23.4004 0H20.2754V0.195312C19.8848 0.0651042 19.543 0 19.25 0H4.65039C4.09701 0 3.61686 0.203451 3.20996 0.610352C2.80306 1.01725 2.59961 1.51367 2.59961 2.09961V5.22461H1.52539C0.841797 5.22461 0.5 5.56641 0.5 6.25C0.5 6.93359 0.841797 7.27539 1.52539 7.27539H2.59961V11.4746H1.52539C0.841797 11.4746 0.5 11.8164 0.5 12.5C0.5 13.1836 0.841797 13.5254 1.52539 13.5254H2.59961V17.7246H1.52539C0.841797 17.7246 0.5 18.0664 0.5 18.75C0.5 19.4336 0.841797 19.7754 1.52539 19.7754H2.59961V22.9004C2.59961 23.4863 2.80306 23.9827 3.20996 24.3896C3.61686 24.7965 4.09701 25 4.65039 25H19.25C20.1289 25 20.8695 24.6989 21.4717 24.0967C22.0739 23.4945 22.375 22.7539 22.375 21.875V17.7246C23.2539 17.7246 23.9945 17.4235 24.5967 16.8213C25.1989 16.2191 25.5 15.4785 25.5 14.5996V10.4004H25.3047C25.4349 10.0098 25.5 9.66797 25.5 9.375V5.22461H25.3047C25.4349 4.76888 25.5 4.41081 25.5 4.15039V2.09961C25.5 1.51367 25.2965 1.01725 24.8896 0.610352C24.4827 0.203451 23.9863 0 23.4004 0ZM22.375 2.09961H23.4004V4.15039C23.4004 4.86654 23.0586 5.22461 22.375 5.22461V2.09961ZM22.375 7.27539C22.668 7.27539 23.0098 7.21029 23.4004 7.08008V9.375C23.4004 10.0586 23.0586 10.4004 22.375 10.4004V7.27539ZM20.2754 21.875C20.2754 22.5586 19.9336 22.9004 19.25 22.9004H4.65039V19.7754H5.72461C6.4082 19.7754 6.75 19.4336 6.75 18.75C6.75 18.0664 6.4082 17.7246 5.72461 17.7246H4.65039V13.5254H5.72461C6.4082 13.5254 6.75 13.1836 6.75 12.5C6.75 11.8164 6.4082 11.4746 5.72461 11.4746H4.65039V7.27539H5.72461C6.4082 7.27539 6.75 6.93359 6.75 6.25C6.75 5.56641 6.4082 5.22461 5.72461 5.22461H4.65039V2.09961H19.25C19.9336 2.09961 20.2754 2.44141 20.2754 3.125V21.875ZM22.375 15.625V12.5C22.668 12.5 23.0098 12.4349 23.4004 12.3047V14.5996C23.4004 15.2832 23.0586 15.625 22.375 15.625Z" fill="black"/>
<path d="M11.125 17.7625L7.24375 13.8813L9.0125 12.1125L11.125 14.2312L17.3 8.05L19.0687 9.81875L11.125 17.7625Z" fill="black"/>
</g>
</svg>
