<svg width="7" height="7" viewBox="0 0 7 7" fill="none" xmlns="http://www.w3.org/2000/svg">
<path id="user" d="M3.5 0C5.42988 0 7 1.57012 7 3.5C7 5.42988 5.42988 7 3.5 7C1.57012 7 -3.57628e-07 5.42988 -3.57628e-07 3.5C-3.57628e-07 1.57012 1.57012 0 3.5 0ZM4.34505 1.96572C4.13185 1.73974 3.83183 1.61538 3.5 1.61538C3.16817 1.61538 2.87084 1.74058 2.6568 1.96774C2.4399 2.19793 2.3344 2.50721 2.3593 2.83971C2.40911 3.5 2.92065 4.03846 3.5 4.03846C4.07935 4.03846 4.5919 3.5 4.6407 2.83954C4.66543 2.50435 4.5601 2.19406 4.34505 1.96572ZM3.5 6.46154C3.89535 6.4618 4.28674 6.38267 4.65093 6.22884C5.01513 6.07501 5.34474 5.84961 5.62019 5.56601C5.46243 5.34103 5.26142 5.14974 5.02889 5.00332C4.59998 4.72837 4.05714 4.57692 3.5 4.57692C2.94286 4.57692 2.40002 4.72837 1.97161 5.00332C1.7389 5.14967 1.5377 5.34097 1.37981 5.56601C1.65524 5.84964 1.98484 6.07506 2.34904 6.22889C2.71325 6.38272 3.10464 6.46184 3.5 6.46154Z" fill="black"/>
</svg>
